<svg width="161" height="43" viewBox="0 0 161 43" fill="none" xmlns="http://www.w3.org/2000/svg">
<path d="M6.36 8.6V15.6H15.76V20.04H6.36V27.44H16.96V32H0.76V4.04H16.96V8.6H6.36ZM49.5691 9.52C52.2891 9.52 54.4757 10.36 56.1291 12.04C57.8091 13.6933 58.6491 16.0133 58.6491 19V32H53.0491V19.76C53.0491 18.0267 52.6091 16.7067 51.7291 15.8C50.8491 14.8667 49.6491 14.4 48.1291 14.4C46.6091 14.4 45.3957 14.8667 44.4891 15.8C43.6091 16.7067 43.1691 18.0267 43.1691 19.76V32H37.5691V19.76C37.5691 18.0267 37.1291 16.7067 36.2491 15.8C35.3691 14.8667 34.1691 14.4 32.6491 14.4C31.1024 14.4 29.8757 14.8667 28.9691 15.8C28.0891 16.7067 27.6491 18.0267 27.6491 19.76V32H22.0491V9.84H27.6491V12.52C28.3691 11.5867 29.2891 10.8533 30.4091 10.32C31.5557 9.78666 32.8091 9.52 34.1691 9.52C35.9024 9.52 37.4491 9.89333 38.8091 10.64C40.1691 11.36 41.2224 12.4 41.9691 13.76C42.6891 12.48 43.7291 11.4533 45.0891 10.68C46.4757 9.90667 47.9691 9.52 49.5691 9.52ZM69.5631 13.04C70.2831 12.0267 71.2698 11.1867 72.5231 10.52C73.8031 9.82667 75.2565 9.48 76.8831 9.48C78.7765 9.48 80.4831 9.94667 82.0031 10.88C83.5498 11.8133 84.7631 13.1467 85.6431 14.88C86.5498 16.5867 87.0031 18.5733 87.0031 20.84C87.0031 23.1067 86.5498 25.12 85.6431 26.88C84.7631 28.6133 83.5498 29.96 82.0031 30.92C80.4831 31.88 78.7765 32.36 76.8831 32.36C75.2565 32.36 73.8165 32.0267 72.5631 31.36C71.3365 30.6933 70.3365 29.8533 69.5631 28.84V42.56H63.9631V9.84H69.5631V13.04ZM81.2831 20.84C81.2831 19.5067 81.0031 18.36 80.4431 17.4C79.9098 16.4133 79.1898 15.6667 78.2831 15.16C77.4031 14.6533 76.4431 14.4 75.4031 14.4C74.3898 14.4 73.4298 14.6667 72.5231 15.2C71.6431 15.7067 70.9231 16.4533 70.3631 17.44C69.8298 18.4267 69.5631 19.5867 69.5631 20.92C69.5631 22.2533 69.8298 23.4133 70.3631 24.4C70.9231 25.3867 71.6431 26.1467 72.5231 26.68C73.4298 27.1867 74.3898 27.44 75.4031 27.44C76.4431 27.44 77.4031 27.1733 78.2831 26.64C79.1898 26.1067 79.9098 25.3467 80.4431 24.36C81.0031 23.3733 81.2831 22.2 81.2831 20.84ZM96.6725 13.28C97.3925 12.1067 98.3258 11.1867 99.4725 10.52C100.646 9.85333 101.979 9.52 103.473 9.52V15.4H101.993C100.233 15.4 98.8992 15.8133 97.9925 16.64C97.1125 17.4667 96.6725 18.9067 96.6725 20.96V32H91.0725V9.84H96.6725V13.28ZM110.084 7.2C109.098 7.2 108.271 6.89333 107.604 6.28C106.964 5.64 106.644 4.85333 106.644 3.92C106.644 2.98667 106.964 2.21333 107.604 1.6C108.271 0.959998 109.098 0.639998 110.084 0.639998C111.071 0.639998 111.884 0.959998 112.524 1.6C113.191 2.21333 113.524 2.98667 113.524 3.92C113.524 4.85333 113.191 5.64 112.524 6.28C111.884 6.89333 111.071 7.2 110.084 7.2ZM112.844 9.84V32H107.244V9.84H112.844ZM126.857 32.36C125.044 32.36 123.417 32.04 121.977 31.4C120.537 30.7333 119.391 29.84 118.537 28.72C117.711 27.6 117.257 26.36 117.177 25H122.817C122.924 25.8533 123.337 26.56 124.057 27.12C124.804 27.68 125.724 27.96 126.817 27.96C127.884 27.96 128.711 27.7467 129.297 27.32C129.911 26.8933 130.217 26.3467 130.217 25.68C130.217 24.96 129.844 24.4267 129.097 24.08C128.377 23.7067 127.217 23.3067 125.617 22.88C123.964 22.48 122.604 22.0667 121.537 21.64C120.497 21.2133 119.591 20.56 118.817 19.68C118.071 18.8 117.697 17.6133 117.697 16.12C117.697 14.8933 118.044 13.7733 118.737 12.76C119.457 11.7467 120.471 10.9467 121.777 10.36C123.111 9.77333 124.671 9.48 126.457 9.48C129.097 9.48 131.204 10.1467 132.777 11.48C134.351 12.7867 135.217 14.56 135.377 16.8H130.017C129.937 15.92 129.564 15.2267 128.897 14.72C128.257 14.1867 127.391 13.92 126.297 13.92C125.284 13.92 124.497 14.1067 123.937 14.48C123.404 14.8533 123.137 15.3733 123.137 16.04C123.137 16.7867 123.511 17.36 124.257 17.76C125.004 18.1333 126.164 18.52 127.737 18.92C129.337 19.32 130.657 19.7333 131.697 20.16C132.737 20.5867 133.631 21.2533 134.377 22.16C135.151 23.04 135.551 24.2133 135.577 25.68C135.577 26.96 135.217 28.1067 134.497 29.12C133.804 30.1333 132.791 30.9333 131.457 31.52C130.151 32.08 128.617 32.36 126.857 32.36ZM160.774 20.44C160.774 21.24 160.721 21.96 160.614 22.6H144.414C144.547 24.2 145.107 25.4533 146.094 26.36C147.081 27.2667 148.294 27.72 149.734 27.72C151.814 27.72 153.294 26.8267 154.174 25.04H160.214C159.574 27.1733 158.347 28.9333 156.534 30.32C154.721 31.68 152.494 32.36 149.854 32.36C147.721 32.36 145.801 31.8933 144.094 30.96C142.414 30 141.094 28.6533 140.134 26.92C139.201 25.1867 138.734 23.1867 138.734 20.92C138.734 18.6267 139.201 16.6133 140.134 14.88C141.067 13.1467 142.374 11.8133 144.054 10.88C145.734 9.94667 147.667 9.48 149.854 9.48C151.961 9.48 153.841 9.93333 155.494 10.84C157.174 11.7467 158.467 13.04 159.374 14.72C160.307 16.3733 160.774 18.28 160.774 20.44ZM154.974 18.84C154.947 17.4 154.427 16.2533 153.414 15.4C152.401 14.52 151.161 14.08 149.694 14.08C148.307 14.08 147.134 14.5067 146.174 15.36C145.241 16.1867 144.667 17.3467 144.454 18.84H154.974Z" fill="#1D293F"/>
</svg>
