<svg width="15" height="16" viewBox="0 0 15 16" fill="none" xmlns="http://www.w3.org/2000/svg">
<g id="Icon / Star">
<path id="Star" d="M10.9558 9.30209C10.8182 9.443 10.755 9.64677 10.7864 9.84662L11.2586 12.6085C11.2984 12.8426 11.2049 13.0795 11.0195 13.2148C10.8379 13.3552 10.5962 13.372 10.3981 13.2597L8.04546 11.963C7.96366 11.9169 7.87283 11.8922 7.77987 11.8894H7.63592C7.58599 11.8973 7.53712 11.9141 7.4925 11.94L5.13937 13.2429C5.02304 13.3046 4.89131 13.3265 4.76223 13.3046C4.44777 13.2418 4.23796 12.9252 4.28948 12.5911L4.76223 9.82922C4.79357 9.62769 4.73036 9.42279 4.59279 9.27964L2.67469 7.31486C2.51428 7.15038 2.4585 6.90338 2.5318 6.68052C2.60298 6.45821 2.78465 6.29598 3.00402 6.25949L5.64399 5.85475C5.84478 5.83285 6.02113 5.70374 6.11143 5.51287L7.27472 2.99234C7.30234 2.9362 7.33793 2.88456 7.38095 2.84077L7.42876 2.80148C7.45372 2.77228 7.48241 2.74815 7.51428 2.7285L7.57218 2.70604L7.66248 2.66675H7.88611C8.08583 2.68864 8.26165 2.81495 8.35354 3.00357L9.53223 5.51287C9.61722 5.69644 9.78242 5.82387 9.97311 5.85475L12.6131 6.25949C12.8362 6.29317 13.0226 6.45597 13.0965 6.68052C13.166 6.90562 13.106 7.15262 12.9424 7.31486L10.9558 9.30209Z" fill="#F5A623"/>
</g>
</svg>
