<svg width="46" height="54" viewBox="0 0 46 54" fill="none" xmlns="http://www.w3.org/2000/svg">
<g id="Backpack">
<path id="Path_122733" d="M4.18209 50.8355H6.40547C6.63838 51.7405 7.1622 52.542 7.89493 53.1145C8.62766 53.6871 9.52792 53.9983 10.4547 53.9995H18.2955C18.4355 54.0038 18.5749 53.9798 18.7055 53.9288C18.8361 53.8777 18.9552 53.8007 19.0557 53.7024C19.1563 53.604 19.2362 53.4863 19.2908 53.3562C19.3454 53.2261 19.3735 53.0863 19.3735 52.945C19.3735 52.8037 19.3454 52.6639 19.2908 52.5338C19.2362 52.4037 19.1563 52.286 19.0557 52.1876C18.9552 52.0893 18.8361 52.0123 18.7055 51.9613C18.5749 51.9102 18.4355 51.8862 18.2955 51.8905H14.6368V46.6166C14.6608 44.3947 15.5525 42.2721 17.1184 40.7095C18.6843 39.1469 20.798 38.2705 23.0005 38.2705C25.203 38.2705 27.3167 39.1469 28.8826 40.7095C30.4485 42.2721 31.3402 44.3947 31.3642 46.6166V51.8895H27.7045C27.5645 51.8852 27.4251 51.9092 27.2945 51.9603C27.1639 52.0113 27.0448 52.0883 26.9443 52.1866C26.8438 52.285 26.7638 52.4027 26.7092 52.5328C26.6546 52.6629 26.6265 52.8027 26.6265 52.944C26.6265 53.0853 26.6546 53.2251 26.7092 53.3552C26.7638 53.4853 26.8438 53.6031 26.9443 53.7014C27.0448 53.7997 27.1639 53.8767 27.2945 53.9278C27.4251 53.9788 27.5645 54.0028 27.7045 53.9985H35.5453C36.4721 53.9973 37.3723 53.6861 38.1051 53.1135C38.8378 52.541 39.3616 51.7395 39.5945 50.8345H41.8179C42.9267 50.8332 43.9896 50.3883 44.7736 49.5974C45.5577 48.8064 45.9987 47.7341 46 46.6156V39.6556C45.9976 37.8811 45.3627 36.1667 44.2111 34.8254C43.0595 33.484 41.468 32.6053 39.7274 32.3497V17.7998C40.6244 17.5649 41.4189 17.0364 41.9865 16.2972C42.554 15.558 42.8625 14.6499 42.8637 13.7149V10.5469C42.8624 9.42837 42.4213 8.35603 41.6373 7.56511C40.8533 6.77419 39.7904 6.32926 38.6816 6.32794H30.3184V4.21896C30.3171 3.10043 29.8761 2.02809 29.0921 1.23717C28.308 0.446245 27.2451 0.00132324 26.1363 0H19.8637C18.7549 0.00132324 17.692 0.446245 16.9079 1.23717C16.1239 2.02809 15.6829 3.10043 15.6816 4.21896V6.32794H7.31841C6.20965 6.32926 5.14668 6.77419 4.36267 7.56511C3.57866 8.35603 3.13763 9.42837 3.13632 10.5469V13.7109C3.13662 14.6465 3.44473 15.5557 4.01232 16.2957C4.57992 17.0357 5.37491 17.5647 6.27264 17.7998V32.3497C4.53199 32.6053 2.94055 33.484 1.78893 34.8254C0.637314 36.1667 0.00235296 37.8811 0 39.6556V46.6166C0.00131167 47.7351 0.442345 48.8074 1.22635 49.5984C2.01036 50.3893 3.07333 50.8342 4.18209 50.8355ZM8.36418 17.9298H37.6368V20.6718C37.6352 22.0691 37.0846 23.4088 36.1056 24.3972C35.1265 25.3856 33.799 25.9421 32.4139 25.9448H27.1821V23.8358C27.1821 23.556 27.0719 23.2876 26.8758 23.0898C26.6797 22.8919 26.4137 22.7808 26.1363 22.7808H19.8637C19.5863 22.7808 19.3203 22.8919 19.1242 23.0898C18.9281 23.2876 18.8179 23.556 18.8179 23.8358V25.9448H13.591C12.2053 25.9432 10.8767 25.3871 9.89683 24.3986C8.91694 23.4101 8.36575 22.0698 8.36418 20.6718V17.9298ZM31.3612 8.43792V15.8199H14.6368V8.43792H31.3612ZM25.0905 26.9998C25.0905 27.5592 24.8702 28.0958 24.4781 28.4914C24.0859 28.887 23.5541 29.1092 22.9995 29.1092C22.4449 29.1092 21.9131 28.887 21.5209 28.4914C21.1288 28.0958 20.9085 27.5592 20.9085 26.9998V24.8908H25.0905V26.9998ZM22.997 36.0697C21.3735 36.0708 19.7726 36.4536 18.3214 37.1879C16.8702 37.9222 15.6086 38.9876 14.6368 40.2996V28.0547H18.9507C19.1825 28.9603 19.7061 29.7626 20.4391 30.3353C21.172 30.9081 22.0729 31.2188 23 31.2188C23.9271 31.2188 24.828 30.9081 25.561 30.3353C26.2939 29.7626 26.8175 28.9603 27.0493 28.0547H31.3632V40.2856C30.391 38.9736 29.1281 37.9091 27.6755 37.1771C26.2229 36.4451 24.6208 36.0658 22.997 36.0697ZM43.9124 39.6556V46.6166C43.9116 47.1757 43.6911 47.7116 43.2993 48.107C42.9074 48.5023 42.3761 48.7248 41.8219 48.7256H39.7274V34.4887C40.9078 34.7326 41.9687 35.3798 42.7311 36.3211C43.4935 37.2624 43.9107 38.4401 43.9124 39.6556ZM37.6368 49.7805C37.636 50.3396 37.4155 50.8756 37.0236 51.2709C36.6318 51.6663 36.1005 51.8887 35.5463 51.8895H33.4547V27.9777C35.0448 27.7458 36.5147 26.9916 37.6368 25.8318V49.7805ZM40.7731 10.5469V13.7109C40.7724 14.27 40.5518 14.8059 40.16 15.2013C39.7681 15.5966 39.2368 15.8191 38.6826 15.8199H33.4547V8.43792H38.6816C39.236 8.43845 39.7675 8.66078 40.1596 9.05615C40.5517 9.45152 40.7724 9.98764 40.7731 10.5469ZM17.7731 4.21896C17.7739 3.65987 17.9944 3.1239 18.3863 2.72856C18.7782 2.33322 19.3095 2.11077 19.8637 2.10998H26.1363C26.6905 2.11077 27.2218 2.33322 27.6137 2.72856C28.0056 3.1239 28.2261 3.65987 28.2269 4.21896V6.32794H17.7731V4.21896ZM5.22687 13.7109V10.5469C5.22765 9.98781 5.44816 9.45184 5.84005 9.0565C6.23193 8.66117 6.76321 8.43871 7.31742 8.43792H12.5443V15.8199H7.31841C6.76403 15.8193 6.23249 15.597 5.84039 15.2016C5.4483 14.8063 5.22765 14.2701 5.22687 13.7109ZM12.5453 27.9777V51.8905H10.4547C9.90052 51.8897 9.36924 51.6673 8.97735 51.2719C8.58547 50.8766 8.36496 50.3406 8.36418 49.7815V25.8318C9.4863 26.9916 10.9562 27.7459 12.5463 27.9777H12.5453ZM2.09055 39.6556C2.09213 38.4405 2.50896 37.2631 3.27077 36.3219C4.03258 35.3807 5.09278 34.7332 6.27264 34.4887V48.7266H4.18209C3.62788 48.7258 3.0966 48.5033 2.70472 48.108C2.31283 47.7126 2.09233 47.1767 2.09154 46.6176L2.09055 39.6556Z" fill="#28B0A6"/>
<path id="Path_122734" d="M28 42.9973C28 42.7328 27.8818 42.4791 27.6715 42.2921C27.4611 42.1051 27.1759 42 26.8784 42H20.1246C19.8264 42 19.5403 42.1054 19.3294 42.2929C19.1185 42.4804 19 42.7348 19 43C19 43.2652 19.1185 43.5196 19.3294 43.7071C19.5403 43.8946 19.8264 44 20.1246 44H26.8723C27.0206 44.0007 27.1676 43.9753 27.3048 43.9251C27.442 43.875 27.5666 43.8012 27.6715 43.7079C27.7764 43.6146 27.8594 43.5038 27.9158 43.3819C27.9722 43.2599 28.0008 43.1292 28 42.9973Z" fill="#28B0A6"/>
<path id="Ellipse_155" d="M22.5 54C22.7761 54 23 53.5523 23 53C23 52.4477 22.7761 52 22.5 52C22.2239 52 22 52.4477 22 53C22 53.5523 22.2239 54 22.5 54Z" fill="#28B0A6"/>
</g>
</svg>
