<svg width="42" height="55" viewBox="0 0 42 55" fill="none" xmlns="http://www.w3.org/2000/svg">
<g id="Bungee">
<path id="prefix__prefix__Path_122719" d="M0.153424 42.0825L1.98569 44.8593C2.10926 45.0467 2.29626 45.1821 2.51156 45.24C2.72686 45.2978 2.95565 45.2742 3.15492 45.1735L4.78966 44.3473H14.1942C13.87 44.9081 13.6988 45.5458 13.6979 46.1954V48.0436C13.4554 48.0436 13.2229 48.141 13.0515 48.3144C12.88 48.4878 12.7837 48.7229 12.7837 48.9682V50.3796C12.7837 51.605 13.265 52.7802 14.1217 53.6467C14.9785 54.5132 16.1404 55 17.352 55C18.5636 55 19.7255 54.5132 20.5822 53.6467C21.4389 52.7802 21.9202 51.605 21.9202 50.3796V48.9631C21.9202 48.7179 21.8239 48.4828 21.6525 48.3094C21.4811 48.136 21.2485 48.0386 21.0061 48.0386V46.1904C21.0051 45.5408 20.8339 44.9031 20.5098 44.3423H29.9222L31.557 45.1685C31.7563 45.2692 31.985 45.2928 32.2003 45.235C32.4156 45.1771 32.6026 45.0417 32.7262 44.8542L34.5535 42.0815C34.688 41.8776 34.7369 41.6279 34.6894 41.3875C34.6419 41.1471 34.502 40.9356 34.3004 40.7996L31.559 38.9514C31.4088 38.85 31.2323 38.7959 31.0518 38.7958H21.9153V24.9362H22.349C23.5199 24.9359 24.6777 25.1862 25.7462 25.6706C26.8147 26.1551 27.7697 26.8627 28.5485 27.7471C29.2236 28.5196 30.0445 29.148 30.9631 29.5952C31.8816 30.0424 32.8793 30.2994 33.8974 30.3511C34.0377 30.3592 34.1777 30.3632 34.3173 30.3632C36.2315 30.3665 38.0772 29.6432 39.4895 28.3363C40.9839 26.9524 41.8814 25.0306 41.9891 22.9842C42.0967 20.9378 41.4059 18.9305 40.0652 17.394L34.6478 11.2312C33.4734 9.8957 32.8119 8.17825 32.7837 6.3912C32.7554 4.60414 33.3623 2.8662 34.494 1.49348C34.64 1.30424 34.7076 1.06498 34.6823 0.826294C34.6571 0.587602 34.541 0.368194 34.3588 0.214466C34.1765 0.060737 33.9422 -0.0152596 33.7055 0.00254981C33.4688 0.0203592 33.2483 0.130577 33.0905 0.309895C31.6792 2.02239 30.9223 4.19025 30.9574 6.41935C30.9926 8.64846 31.8175 10.7908 33.2821 12.4569L38.7104 18.6258C39.2231 19.2092 39.6173 19.889 39.8703 20.6265C40.1233 21.364 40.2302 22.1447 40.1849 22.9239C40.1396 23.7032 39.9429 24.4658 39.6062 25.1682C39.2695 25.8706 38.7994 26.4991 38.2225 27.0177C37.6457 27.5364 36.9735 27.935 36.2443 28.1909C35.5152 28.4468 34.7433 28.5549 33.9728 28.5091C33.2024 28.4632 32.4483 28.2644 31.7539 27.9238C31.0594 27.5833 30.438 27.1077 29.9252 26.5243C28.9754 25.4442 27.8104 24.5796 26.5067 23.9874C25.203 23.3952 23.7901 23.0886 22.3609 23.088H21.9272V20.5954L23.6026 18.0556C23.7029 17.9037 23.7564 17.7252 23.7565 17.5426V15.6954C23.7565 15.4502 23.6602 15.215 23.4887 15.0416C23.3173 14.8683 23.0848 14.7708 22.8423 14.7708H19.1877C18.9453 14.771 18.7129 14.8685 18.5416 15.0419L17.3604 16.2365L16.1793 15.0439C16.0079 14.8705 15.7755 14.773 15.5331 14.7729H11.8785C11.6361 14.7729 11.4036 14.8703 11.2321 15.0437C11.0607 15.217 10.9644 15.4522 10.9644 15.6974V17.5436C10.9643 17.7257 11.0175 17.9039 11.1172 18.0556L12.7907 20.5954V38.7978H3.65418C3.47363 38.7979 3.29714 38.852 3.14698 38.9534L0.405532 40.8016C0.204371 40.9378 0.064858 41.1492 0.0175944 41.3893C-0.0296692 41.6295 0.0191783 41.8788 0.153424 42.0825ZM25.5828 40.646H30.7887L32.5396 41.8265L31.6632 43.1527L30.5575 42.5935C30.4307 42.5283 30.2907 42.4939 30.1485 42.4931H25.5828V40.646ZM20.1009 50.3746C20.1078 50.7431 20.042 51.1093 19.9074 51.4518C19.7728 51.7943 19.572 52.1062 19.3168 52.3692C19.0616 52.6323 18.7571 52.8413 18.4211 52.984C18.0851 53.1266 17.7243 53.2001 17.3599 53.2001C16.9955 53.2001 16.6348 53.1266 16.2988 52.984C15.9628 52.8413 15.6583 52.6323 15.4031 52.3692C15.1479 52.1062 14.9471 51.7943 14.8124 51.4518C14.6778 51.1093 14.612 50.7431 14.619 50.3746V49.8867H20.1009V50.3746ZM15.5351 48.0386V46.1904C15.5351 45.7003 15.7276 45.2302 16.0703 44.8836C16.413 44.537 16.8778 44.3423 17.3624 44.3423C17.847 44.3423 18.3118 44.537 18.6545 44.8836C18.9972 45.2302 19.1897 45.7003 19.1897 46.1904V48.0386H15.5351ZM20.1009 42.4941H14.619V35.1015H20.1009V42.4941ZM16.4463 24.9362V26.7894H14.619V24.9362H16.4463ZM14.619 23.088V21.2399H16.4463V23.088H14.619ZM16.4463 28.6325V30.1022L14.619 31.9503V28.6375L16.4463 28.6325ZM23.7555 40.6429V42.4911H21.9282V40.6429H23.7555ZM18.2736 17.9261L19.5639 16.621H21.9262V17.2655L20.5237 19.3937H18.2736V17.9261ZM18.2736 21.2389H20.1009V23.087H18.2736V21.2389ZM18.2736 24.9352H20.1009V26.7894H18.2736V24.9352ZM18.2736 28.6315H20.1009V31.9443L18.2736 30.1022V28.6315ZM18.8086 33.2493H15.9113L17.3604 31.7837L18.8086 33.2493ZM12.7917 16.615H15.154L16.4443 17.92V19.3857H14.1942L12.7917 17.2575V16.615ZM10.9644 40.6429H12.7917V42.4911H10.9644V40.6429ZM3.9311 40.6429H9.13211V42.4911H4.56634C4.42416 42.4919 4.28413 42.5263 4.15741 42.5915L3.05368 43.1527L2.18023 41.8285L3.9311 40.6429Z" fill="#28B0A6"/>
<path id="prefix__prefix__Path_122720" d="M26.2413 20.9893C27.0626 20.9883 27.8714 21.2197 28.5955 21.6631C29.3196 22.1064 29.9365 22.7477 30.3912 23.53C30.4527 23.6432 30.5335 23.7412 30.6288 23.8181C30.7241 23.895 30.8318 23.9491 30.9458 23.9774C31.0597 24.0057 31.1774 24.0074 31.292 23.9826C31.4065 23.9578 31.5155 23.9069 31.6126 23.833C31.7096 23.7591 31.7926 23.6635 31.8567 23.5522C31.9208 23.4408 31.9647 23.3158 31.9857 23.1847C32.0068 23.0535 32.0045 22.9189 31.9792 22.7887C31.9538 22.6586 31.9059 22.5356 31.8381 22.4271C31.2248 21.3721 30.3928 20.5072 29.4162 19.9093C28.4397 19.3115 27.349 18.9992 26.2413 19.0005H25.8985C25.7819 18.9961 25.6657 19.0186 25.5569 19.0666C25.4481 19.1146 25.3488 19.1871 25.265 19.2799C25.1811 19.3727 25.1145 19.4838 25.069 19.6066C25.0234 19.7294 25 19.8615 25 19.9949C25 20.1283 25.0234 20.2604 25.069 20.3832C25.1145 20.506 25.1811 20.6171 25.265 20.7099C25.3488 20.8027 25.4481 20.8752 25.5569 20.9232C25.6657 20.9712 25.7819 20.9937 25.8985 20.9893H26.2413Z" fill="#28B0A6"/>
<path id="prefix__prefix__Path_122721" d="M36.8186 3.14627C36.6433 3.0182 36.4288 2.97166 36.2222 3.01686C36.0155 3.06206 35.8338 3.19532 35.7168 3.38732C35.1691 4.29163 34.9233 5.37544 35.0209 6.45545C35.1186 7.53546 35.5537 8.54538 36.2526 9.31441L36.6098 9.70576C36.6816 9.79485 36.7693 9.86688 36.8675 9.91741C36.9657 9.96794 37.0724 9.99591 37.1808 9.99958C37.2892 10.0033 37.3972 9.98257 37.4981 9.93878C37.5989 9.895 37.6905 9.82905 37.7673 9.745C37.844 9.66095 37.9042 9.56057 37.9441 9.45007C37.9841 9.33956 38.003 9.22126 37.9996 9.10245C37.9963 8.98364 37.9707 8.86684 37.9246 8.75925C37.8785 8.65166 37.8128 8.55556 37.7314 8.47686L37.3742 8.08551C36.9342 7.60143 36.6603 6.96568 36.5988 6.2858C36.5373 5.60591 36.6921 4.92364 37.0369 4.35437C37.095 4.25935 37.1354 4.15272 37.1559 4.04058C37.1764 3.92843 37.1765 3.81296 37.1562 3.70077C37.1359 3.58858 37.0957 3.48187 37.0377 3.38672C36.9798 3.29158 36.9053 3.20987 36.8186 3.14627Z" fill="#28B0A6"/>
<path id="prefix__prefix__Path_122722" d="M40.2505 13.662C40.3409 13.7644 40.4513 13.8471 40.5749 13.9051C40.6985 13.9632 40.8326 13.9953 40.9691 13.9995C41.1055 14.0037 41.2414 13.98 41.3684 13.9297C41.4953 13.8794 41.6106 13.8036 41.7071 13.7071C41.8036 13.6106 41.8794 13.4953 41.9297 13.3683C41.98 13.2414 42.0037 13.1055 41.9995 12.9691C41.9953 12.8326 41.9632 12.6985 41.9052 12.5749C41.8471 12.4513 41.7644 12.3409 41.662 12.2505L40.662 11.2505C40.4713 11.082 40.2235 10.9926 39.9691 11.0005C39.7147 11.0083 39.4729 11.1129 39.2929 11.2929C39.1129 11.4729 39.0083 11.7147 39.0005 11.9691C38.9926 12.2235 39.082 12.4713 39.2506 12.662L40.2505 13.662Z" fill="#28B0A6"/>
<path id="prefix__prefix__Path_122723" d="M8 33.0165V30.9835C7.99145 30.7197 7.88234 30.4697 7.69574 30.2861C7.50913 30.1026 7.25965 30 7 30C6.74035 30 6.49087 30.1026 6.30426 30.2861C6.11766 30.4697 6.00855 30.7197 6 30.9835V33.0165C6.00855 33.2803 6.11766 33.5304 6.30426 33.7139C6.49087 33.8974 6.74035 34 7 34C7.25965 34 7.50913 33.8974 7.69574 33.7139C7.88234 33.5304 7.99145 33.2803 8 33.0165Z" fill="#28B0A6"/>
<path id="prefix__prefix__Path_122724" d="M2.00054 35.9803C1.99612 36.1126 2.01871 36.2444 2.06695 36.368C2.11518 36.4915 2.18809 36.6041 2.28134 36.6993C2.37458 36.7944 2.48626 36.8701 2.60972 36.9217C2.73318 36.9734 2.86591 37 3 37C3.13409 37 3.26682 36.9734 3.39028 36.9217C3.51374 36.8701 3.62542 36.7944 3.71866 36.6993C3.81191 36.6041 3.88482 36.4915 3.93305 36.368C3.98129 36.2444 4.00388 36.1126 3.99946 35.9803V33.0197C4.00388 32.8874 3.98129 32.7556 3.93305 32.6321C3.88482 32.5086 3.81191 32.3959 3.71866 32.3007C3.62542 32.2056 3.51374 32.1299 3.39028 32.0783C3.26682 32.0266 3.13409 32 3 32C2.86591 32 2.73318 32.0266 2.60972 32.0783C2.48626 32.1299 2.37458 32.2056 2.28134 32.3007C2.18809 32.3959 2.11518 32.5086 2.06695 32.6321C2.01871 32.7556 1.99612 32.8874 2.00054 33.0197V35.9803Z" fill="#28B0A6"/>
<path id="prefix__prefix__Path_122725" d="M29.0005 34.0332V36.0327C29.0091 36.2921 29.1181 36.5381 29.3046 36.7186C29.4911 36.8991 29.7405 37 30 37C30.2595 37 30.5088 36.8991 30.6953 36.7186C30.8818 36.5381 30.9909 36.2921 30.9995 36.0327V34.0332C31.0039 33.8992 30.9813 33.7656 30.9331 33.6404C30.8848 33.5153 30.8119 33.4011 30.7187 33.3047C30.6254 33.2083 30.5137 33.1317 30.3903 33.0793C30.2668 33.027 30.1341 33 30 33C29.8659 33 29.7332 33.027 29.6097 33.0793C29.4863 33.1317 29.3746 33.2083 29.2813 33.3047C29.1881 33.4011 29.1152 33.5153 29.0669 33.6404C29.0187 33.7656 28.9961 33.8992 29.0005 34.0332Z" fill="#28B0A6"/>
<path id="prefix__prefix__Path_122726" d="M25.0005 30.9707V34.9667C24.9961 35.1008 25.0187 35.2344 25.0669 35.3595C25.1152 35.4847 25.1881 35.5989 25.2813 35.6953C25.3746 35.7917 25.4863 35.8683 25.6097 35.9207C25.7332 35.973 25.8659 36 26 36C26.1341 36 26.2668 35.973 26.3903 35.9207C26.5137 35.8683 26.6254 35.7917 26.7187 35.6953C26.8119 35.5989 26.8848 35.4847 26.9331 35.3595C26.9813 35.2344 27.0039 35.1008 26.9995 34.9667V30.9674C26.9909 30.7079 26.8818 30.462 26.6953 30.2815C26.5088 30.1009 26.2595 30 26 30C25.7405 30 25.4911 30.1009 25.3046 30.2815C25.1181 30.462 25.0091 30.7079 25.0005 30.9674V30.9707Z" fill="#28B0A6"/>
<path id="prefix__prefix__Path_122727" d="M2.99945 31C3.13085 31 3.26096 30.9739 3.38235 30.9232C3.50374 30.8725 3.61403 30.7982 3.70694 30.7046C3.79985 30.6109 3.87356 30.4997 3.92384 30.3774C3.97412 30.255 4 30.1239 4 29.9914V27.9753C3.99145 27.7138 3.88234 27.4658 3.69574 27.2837C3.50913 27.1017 3.25965 27 3 27C2.74035 27 2.49087 27.1017 2.30426 27.2837C2.11766 27.4658 2.00855 27.7138 2 27.9753V29.9914C2 30.2587 2.10527 30.5151 2.29267 30.7042C2.48007 30.8933 2.73428 30.9997 2.99945 31Z" fill="#28B0A6"/>
</g>
</svg>
