<svg width="45" height="54" viewBox="0 0 45 54" fill="none" xmlns="http://www.w3.org/2000/svg">
<g id="City">
<path id="Path_122728" d="M44.496 12.284L41.5254 11.135V6.035C41.5254 5.93112 41.505 5.82827 41.4655 5.7323C41.426 5.63633 41.3681 5.54913 41.2951 5.47568C41.222 5.40223 41.1353 5.34396 41.0399 5.30421C40.9445 5.26446 40.8423 5.244 40.739 5.244H38.9197V0.791C38.9197 0.581214 38.8368 0.38002 38.6893 0.231679C38.5419 0.0833373 38.3419 0 38.1333 0C37.9247 0 37.7247 0.0833373 37.5772 0.231679C37.4297 0.38002 37.3469 0.581214 37.3469 0.791V5.242H35.5276C35.4243 5.242 35.322 5.26246 35.2266 5.30221C35.1312 5.34196 35.0445 5.40023 34.9715 5.47368C34.8985 5.54713 34.8406 5.63433 34.801 5.7303C34.7615 5.82627 34.7412 5.92912 34.7412 6.033V8.51L21.9164 3.547C21.7973 3.50092 21.6689 3.48468 21.5421 3.49968C21.4154 3.51469 21.2942 3.56049 21.189 3.63314C21.0838 3.70579 20.9978 3.80309 20.9383 3.91666C20.8788 4.03023 20.8477 4.15664 20.8477 4.285V10.485H15.4692V7.78C15.4692 7.57021 15.3864 7.36902 15.2389 7.22068C15.0914 7.07234 14.8914 6.989 14.6829 6.989C14.4743 6.989 14.2743 7.07234 14.1268 7.22068C13.9793 7.36902 13.8965 7.57021 13.8965 7.78V10.48H11.3166C11.108 10.48 10.908 10.5633 10.7605 10.7117C10.6131 10.86 10.5302 11.0612 10.5302 11.271C10.5302 11.4808 10.6131 11.682 10.7605 11.8303C10.908 11.9787 11.108 12.062 11.3166 12.062H24.3193V13.974H5.04639V12.066H8.16709C8.37565 12.066 8.57567 11.9827 8.72315 11.8343C8.87062 11.686 8.95347 11.4848 8.95347 11.275C8.95347 11.0652 8.87062 10.864 8.72315 10.7157C8.57567 10.5673 8.37565 10.484 8.16709 10.484H4.25802C4.15475 10.484 4.05249 10.5045 3.95708 10.5442C3.86167 10.584 3.77498 10.6422 3.70196 10.7157C3.62894 10.7891 3.57101 10.8763 3.53149 10.9723C3.49197 11.0683 3.47163 11.1711 3.47163 11.275V14.769C3.47163 14.9788 3.55448 15.18 3.70196 15.3283C3.84944 15.4767 4.04946 15.56 4.25802 15.56H5.20844V19.22H0.786387C0.577824 19.22 0.377803 19.3033 0.230327 19.4517C0.0828507 19.6 0 19.8012 0 20.011V23.505C0 23.7148 0.0828507 23.916 0.230327 24.0643C0.377803 24.2127 0.577824 24.296 0.786387 24.296H1.73681V53.209C1.73681 53.4188 1.81966 53.62 1.96714 53.7683C2.11462 53.9167 2.31464 54 2.5232 54H44.2136C44.4222 54 44.6222 53.9167 44.7697 53.7683C44.9171 53.62 45 53.4188 45 53.209V13.022C45 12.8622 44.9518 12.7061 44.8618 12.5744C44.7718 12.4426 44.6443 12.3414 44.496 12.284ZM36.315 6.824H39.9486V10.524L36.31 9.116L36.315 6.824ZM43.4282 13.565V15.365L22.4175 7.237V5.437L43.4282 13.565ZM6.78519 15.565H22.5825V19.225H6.7842L6.78519 15.565ZM1.57377 20.8H27.7929V22.712H1.57377V20.8ZM12.1607 27.789V52.418H10.2578V27.791L12.1607 27.789ZM13.7334 27.789H15.6343V52.418H13.7324L13.7334 27.789ZM17.208 27.789H19.1099V52.418H17.2061L17.208 27.789ZM20.6827 27.789H22.5835V52.418H20.6807V27.791L20.6827 27.789ZM24.1573 27.789H26.0591V52.418H24.1543L24.1573 27.789ZM26.0591 26.207H3.30958V24.3H26.0561L26.0591 26.207ZM6.7842 27.791H8.68505V52.418H6.7842V27.791ZM3.30958 27.791H5.21143V52.418H3.30958V27.791ZM27.6289 52.418V24.3H28.5793C28.7879 24.3 28.9879 24.2167 29.1354 24.0683C29.2829 23.92 29.3657 23.7188 29.3657 23.509V20.011C29.3657 19.8012 29.2829 19.6 29.1354 19.4517C28.9879 19.3033 28.7879 19.22 28.5793 19.22H24.1543V15.56H25.1047C25.3133 15.56 25.5133 15.4767 25.6608 15.3283C25.8083 15.18 25.8911 14.9788 25.8911 14.769V11.275C25.8911 11.0652 25.8083 10.864 25.6608 10.7157C25.5133 10.5673 25.3133 10.484 25.1047 10.484H22.4205V8.932L43.4282 17.06V52.418H27.6289Z" fill="#28B0A6"/>
<path id="Path_122729" d="M37.2221 17H33.7789C33.5723 17 33.3742 17.0821 33.2281 17.2281C33.0821 17.3742 33 17.5723 33 17.7789V21.2211C33 21.4277 33.0821 21.6258 33.2281 21.7719C33.3742 21.9179 33.5723 22 33.7789 22H37.2211C37.4277 22 37.6258 21.9179 37.7719 21.7719C37.9179 21.6258 38 21.4277 38 21.2211V17.7789C38 17.5725 37.9181 17.3745 37.7722 17.2285C37.6263 17.0824 37.4285 17.0002 37.2221 17ZM36.4432 20.4423H34.5596V18.5587H36.4432V20.4423Z" fill="#28B0A6"/>
<path id="Path_122730" d="M37.2221 26H33.7789C33.5723 26 33.3742 26.0821 33.2281 26.2281C33.0821 26.3742 33 26.5723 33 26.7789V30.2211C33 30.4277 33.0821 30.6258 33.2281 30.7719C33.3742 30.9179 33.5723 31 33.7789 31H37.2211C37.4277 31 37.6258 30.9179 37.7719 30.7719C37.9179 30.6258 38 30.4277 38 30.2211V26.7789C38 26.5725 37.9181 26.3745 37.7722 26.2285C37.6263 26.0824 37.4285 26.0002 37.2221 26ZM36.4432 29.4423H34.5596V27.5587H36.4432V29.4423Z" fill="#28B0A6"/>
<path id="Path_122731" d="M37.2221 35H33.7789C33.5723 35 33.3742 35.0821 33.2281 35.2281C33.0821 35.3742 33 35.5723 33 35.7789V39.2211C33 39.4277 33.0821 39.6258 33.2281 39.7719C33.3742 39.9179 33.5723 40 33.7789 40H37.2211C37.4277 40 37.6258 39.9179 37.7719 39.7719C37.9179 39.6258 38 39.4277 38 39.2211V35.7789C38 35.5725 37.9181 35.3745 37.7722 35.2284C37.6263 35.0824 37.4285 35.0002 37.2221 35ZM36.4432 38.4423H34.5596V36.5587H36.4432V38.4423Z" fill="#28B0A6"/>
<path id="Path_122732" d="M37.2221 43H33.7789C33.5723 43 33.3742 43.0821 33.2281 43.2281C33.0821 43.3742 33 43.5723 33 43.7789V47.2211C33 47.4277 33.0821 47.6258 33.2281 47.7719C33.3742 47.9179 33.5723 48 33.7789 48H37.2211C37.4277 48 37.6258 47.9179 37.7719 47.7719C37.9179 47.6258 38 47.4277 38 47.2211V43.7789C38 43.5725 37.9181 43.3745 37.7722 43.2285C37.6263 43.0824 37.4285 43.0002 37.2221 43ZM36.4432 46.4423H34.5596V44.5587H36.4432V46.4423Z" fill="#28B0A6"/>
</g>
</svg>
