<svg width="54" height="54" viewBox="0 0 54 54" fill="none" xmlns="http://www.w3.org/2000/svg">
<g id="Jungle">
<path id="Path_122735" d="M53.32 11.342C53.1424 9.57403 52.4158 7.90603 51.242 6.572C51.1743 6.49136 51.0912 6.42506 50.9975 6.37698C50.9038 6.32891 50.8014 6.30002 50.6964 6.29202C50.5914 6.28402 50.4859 6.29706 50.386 6.33039C50.2861 6.36371 50.1939 6.41665 50.1147 6.48609C50.0355 6.55554 49.971 6.64009 49.925 6.73479C49.8789 6.82949 49.8523 6.93243 49.8465 7.03758C49.8408 7.14273 49.8561 7.24796 49.8915 7.34712C49.927 7.44627 49.9819 7.53735 50.053 7.615C51.0092 8.70157 51.6015 10.06 51.747 11.5C52.2843 16.769 52.2843 22.079 51.747 27.348C51.5786 28.9989 50.8269 30.5356 49.627 31.682C48.4291 32.8265 46.8589 33.5011 45.204 33.582L44.604 33.61L43.417 31.057C43.351 30.915 43.2443 30.7957 43.1105 30.7144C42.9766 30.6331 42.8216 30.5933 42.6651 30.6002C42.5086 30.607 42.3577 30.6602 42.2315 30.7529C42.1052 30.8456 42.0094 30.9737 41.956 31.121L41 33.761C33.838 34.028 26.576 34.092 19.391 33.952L17.73 25.852C17.6951 25.6815 17.6049 25.5273 17.4734 25.4133C17.3419 25.2993 17.1765 25.2319 17.0028 25.2214C16.8291 25.2109 16.6568 25.258 16.5126 25.3554C16.3683 25.4528 16.2602 25.595 16.205 25.76L14.383 31.214L13.683 28.63C13.6403 28.4722 13.5497 28.3315 13.4237 28.2272C13.2977 28.123 13.1425 28.0604 12.9795 28.048C12.8164 28.0356 12.6535 28.0741 12.5132 28.1581C12.373 28.242 12.2621 28.3674 12.196 28.517L9.93503 33.647L8.53004 33.581C6.87523 33.5 5.30502 32.8254 4.10703 31.681C2.90717 30.5346 2.15547 28.9979 1.98703 27.347C1.44978 22.078 1.44978 16.768 1.98703 11.499C2.15547 9.84809 2.90717 8.31138 4.10703 7.165C5.30621 6.02348 6.87629 5.35186 8.53004 5.273C18.7833 4.77967 29.0523 4.70027 39.312 5.035L40.641 9.953C40.6835 10.1112 40.7741 10.2522 40.9002 10.3567C41.0263 10.4612 41.1817 10.524 41.345 10.5364C41.5083 10.5488 41.6714 10.5102 41.8119 10.4259C41.9523 10.3417 42.0631 10.2159 42.129 10.066L44.261 5.23L45.207 5.274C46.1101 5.3155 46.996 5.53611 47.813 5.923C48.0027 6.01278 48.2202 6.02354 48.4178 5.95294C48.6153 5.88233 48.7768 5.73613 48.8665 5.5465C48.9563 5.35687 48.9671 5.13934 48.8965 4.94177C48.8259 4.7442 48.6797 4.58278 48.49 4.493C47.4846 4.01657 46.3945 3.74464 45.283 3.693C44.785 3.669 44.2877 3.646 43.791 3.624C43.6317 3.61661 43.474 3.65767 43.3385 3.74175C43.203 3.82583 43.0961 3.94899 43.032 4.095L41.582 7.377L40.682 4.056C40.6379 3.89277 40.5426 3.74799 40.4101 3.64289C40.2777 3.53778 40.115 3.47789 39.946 3.472C36.808 3.364 33.66 3.29567 30.502 3.267V2.958C30.501 2.17381 30.189 1.42205 29.6345 0.867547C29.08 0.313044 28.3282 0.00105828 27.544 0L26.187 0C25.403 0.00132274 24.6515 0.313425 24.0972 0.8679C23.5429 1.42237 23.2311 2.17399 23.23 2.958V3.267C18.292 3.314 13.356 3.455 8.45403 3.692C6.41993 3.79346 4.48972 4.6213 3.01418 6.0251C1.53863 7.42889 0.615677 9.31547 0.413034 11.342C-0.135074 16.7181 -0.135074 22.1359 0.413034 27.512C0.615902 29.5383 1.53896 31.4247 3.01448 32.8283C4.49 34.2319 6.42008 35.0596 8.45403 35.161C9.10737 35.193 9.76037 35.223 10.413 35.251C10.5722 35.2582 10.7297 35.217 10.865 35.133C11.0003 35.0489 11.107 34.9258 11.171 34.78L12.745 31.2L13.545 34.151C13.5893 34.315 13.6853 34.4605 13.8187 34.5657C13.9521 34.671 14.1158 34.7305 14.2857 34.7354C14.4555 34.7403 14.6225 34.6905 14.7618 34.5931C14.901 34.4958 15.0053 34.3562 15.059 34.195L16.778 29.051L17.972 34.882C18.0068 35.0588 18.1009 35.2184 18.2388 35.3344C18.3766 35.4504 18.5499 35.5159 18.73 35.52C20.2274 35.552 21.7274 35.5747 23.23 35.588V38.388C23.23 38.5978 23.3134 38.799 23.4617 38.9473C23.6101 39.0957 23.8112 39.179 24.021 39.179C24.2308 39.179 24.432 39.0957 24.5804 38.9473C24.7287 38.799 24.812 38.5978 24.812 38.388V35.6C25.482 35.6033 26.1527 35.605 26.824 35.605C27.524 35.605 28.224 35.603 28.924 35.599V43.575C28.724 44.1243 28.539 44.7043 28.369 45.315C27.7529 47.6336 27.4119 50.0167 27.353 52.415H24.81V41.555C24.81 41.3452 24.7267 41.144 24.5784 40.9957C24.43 40.8473 24.2288 40.764 24.019 40.764C23.8092 40.764 23.6081 40.8473 23.4597 40.9957C23.3114 41.144 23.228 41.3452 23.228 41.555V45.58C22.3084 44.8034 21.215 44.2601 20.0407 43.996C18.8663 43.7319 17.6456 43.7549 16.482 44.063C16.3349 44.0953 16.2 44.1688 16.0932 44.2751C15.9864 44.3813 15.9121 44.5158 15.879 44.6628C15.846 44.8097 15.8555 44.9631 15.9065 45.1048C15.9575 45.2466 16.0479 45.3708 16.167 45.463C16.7785 45.9996 17.3165 46.6146 17.767 47.292C18.835 48.8634 19.6452 50.5952 20.167 52.422H16.38C16.1702 52.422 15.9691 52.5053 15.8207 52.6537C15.6724 52.802 15.589 53.0032 15.589 53.213C15.589 53.4228 15.6724 53.624 15.8207 53.7723C15.9691 53.9207 16.1702 54.004 16.38 54.004H39.46C39.6698 54.004 39.871 53.9207 40.0194 53.7723C40.1677 53.624 40.251 53.4228 40.251 53.213C40.251 53.0032 40.1677 52.802 40.0194 52.6537C39.871 52.5053 39.6698 52.422 39.46 52.422H36.888C37.4099 50.5952 38.2201 48.8634 39.288 47.292C39.7389 46.6157 40.2769 46.0018 40.888 45.466C41.0076 45.3742 41.0984 45.2502 41.1498 45.1086C41.2013 44.967 41.2112 44.8136 41.1784 44.6665C41.1456 44.5194 41.0715 44.3848 40.9648 44.2784C40.8581 44.172 40.7232 44.0983 40.576 44.066C38.8988 43.6415 37.1281 43.785 35.541 44.474C36.2277 42.1304 37.5189 40.0087 39.285 38.322C39.4046 38.2302 39.4954 38.1062 39.5468 37.9646C39.5983 37.823 39.6082 37.6696 39.5754 37.5225C39.5426 37.3755 39.4685 37.2408 39.3618 37.1344C39.2551 37.028 39.1202 36.9543 38.973 36.922C37.8476 36.6198 36.6669 36.586 35.526 36.8233C34.3851 37.0605 33.3157 37.5622 32.404 38.288C31.6676 38.8923 31.027 39.6047 30.504 40.401V35.588C34.2021 35.5534 37.8995 35.4643 41.595 35.321C41.7522 35.3149 41.904 35.2621 42.031 35.1693C42.158 35.0765 42.2545 34.9479 42.308 34.8L42.792 33.463L43.392 34.758C43.4581 34.9002 43.565 35.0196 43.699 35.101C43.8331 35.1824 43.9884 35.2221 44.145 35.215L45.278 35.162C47.3121 35.0605 49.2423 34.2327 50.7179 32.8289C52.1934 31.4251 53.1164 29.5385 53.319 27.512C53.8672 22.1359 53.8672 16.7181 53.319 11.342H53.32ZM24.81 2.958C24.8106 2.59288 24.956 2.24289 25.2143 1.9849C25.4727 1.72691 25.8229 1.582 26.188 1.582H27.544C27.9091 1.58226 28.2591 1.72726 28.5174 1.98519C28.7757 2.24313 28.9212 2.59296 28.922 2.958V3.258C27.552 3.25067 26.1817 3.25067 24.811 3.258V2.958H24.81ZM18.33 45.415C19.2854 45.3853 20.2333 45.5932 21.0885 46.0201C21.9437 46.447 22.6796 47.0796 23.23 47.861V52.418H21.817C21.1674 49.8617 19.9785 47.474 18.33 45.415ZM38.73 45.415C37.0809 47.4728 35.8909 49.8595 35.24 52.415H31.63C32.1303 50.4881 33.0784 48.7065 34.397 47.215C34.9463 46.6197 35.6181 46.1505 36.3661 45.8398C37.1141 45.529 37.9206 45.3841 38.73 45.415ZM33.394 39.515C34.444 38.655 35.7742 38.2124 37.13 38.272C35.3523 40.5012 34.1039 43.105 33.479 45.887C31.7491 47.7117 30.5405 49.9671 29.979 52.418H28.93C28.9909 50.1608 29.3127 47.9182 29.889 45.735C30.3968 43.3538 31.6205 41.1849 33.396 39.519L33.394 39.515Z" fill="#28B0A6"/>
<path id="Path_122736" d="M20.3331 14.438C20.1655 14.4902 20.0189 14.5946 19.9147 14.736C19.8106 14.8774 19.7543 15.0484 19.7542 15.224V23.779C19.7542 23.9975 19.841 24.2071 19.9955 24.3616C20.15 24.5162 20.3596 24.603 20.5782 24.603C20.7967 24.603 21.0063 24.5162 21.1608 24.3616C21.3153 24.2071 21.4021 23.9975 21.4021 23.779V17.866L25.6852 24.066C25.7944 24.2387 25.957 24.3712 26.1482 24.4434C26.3395 24.5156 26.549 24.5235 26.7451 24.466C26.9477 24.3964 27.122 24.2627 27.2416 24.0852C27.3613 23.9076 27.4197 23.6958 27.4081 23.482L27.3282 15.199C27.3271 15.0908 27.3047 14.9838 27.2624 14.8843C27.22 14.7847 27.1584 14.6944 27.0811 14.6187C27.0039 14.5429 26.9125 14.4831 26.8121 14.4426C26.7117 14.4022 26.6044 14.3819 26.4962 14.383C26.3879 14.384 26.281 14.4064 26.1814 14.4488C26.0819 14.4911 25.9916 14.5527 25.9158 14.63C25.8401 14.7072 25.7802 14.7987 25.7398 14.899C25.6994 14.9994 25.6791 15.1068 25.6801 15.215L25.7381 21.246L21.2551 14.754C21.155 14.6101 21.0117 14.5019 20.8459 14.445C20.6801 14.3882 20.5005 14.3857 20.3331 14.438Z" fill="#28B0A6"/>
<path id="Path_122737" d="M38.9961 14.384C38.7776 14.384 38.568 14.4708 38.4135 14.6254C38.259 14.7799 38.1721 14.9895 38.1721 15.208V23.772C38.1721 23.9663 38.2408 24.1543 38.3659 24.3029C38.4911 24.4514 38.6647 24.551 38.8561 24.584C39.2027 24.6124 39.5507 24.619 39.8981 24.604C40.3541 24.604 41.0201 24.604 41.9981 24.596C42.2167 24.5948 42.4258 24.5069 42.5795 24.3515C42.7332 24.1961 42.8188 23.9861 42.8176 23.7675C42.8164 23.549 42.7285 23.3399 42.5731 23.1862C42.4177 23.0325 42.2077 22.9468 41.9891 22.948C41.2241 22.948 40.3991 22.955 39.8161 22.955V15.207C39.8159 14.9894 39.7295 14.7806 39.5759 14.6264C39.4222 14.4722 39.2138 14.3851 38.9961 14.384Z" fill="#28B0A6"/>
<path id="Path_122738" d="M8.21408 15.208V22.059C8.21568 22.221 8.1741 22.3805 8.0936 22.5211C8.0131 22.6617 7.8966 22.7783 7.75608 22.859C7.21308 23.159 6.63208 22.616 6.59808 22.583C6.44228 22.4345 6.23455 22.3528 6.01933 22.3555C5.80411 22.3582 5.59848 22.4449 5.44641 22.5973C5.29434 22.7496 5.20792 22.9554 5.20561 23.1706C5.20331 23.3858 5.28531 23.5934 5.43408 23.749C5.95923 24.2744 6.6646 24.5804 7.40708 24.6049C7.80995 24.6039 8.20572 24.4988 8.55608 24.3C8.95393 24.0764 9.2848 23.7506 9.51442 23.3562C9.74404 22.9619 9.86407 22.5133 9.86208 22.057V15.206C9.86208 14.9874 9.77527 14.7778 9.62074 14.6233C9.46621 14.4688 9.25662 14.382 9.03808 14.382C8.81954 14.382 8.60996 14.4688 8.45543 14.6233C8.3009 14.7778 8.21408 14.9874 8.21408 15.206V15.208Z" fill="#28B0A6"/>
<path id="Path_122739" d="M47.7111 16.108C47.9297 16.108 48.1392 16.0212 48.2938 15.8666C48.4483 15.7121 48.5351 15.5025 48.5351 15.284C48.5351 15.0654 48.4483 14.8558 48.2938 14.7013C48.1392 14.5468 47.9297 14.46 47.7111 14.46H44.1321C43.9136 14.46 43.704 14.5468 43.5494 14.7013C43.3949 14.8558 43.3081 15.0654 43.3081 15.284V23.777C43.3081 23.8852 43.3294 23.9923 43.3708 24.0923C43.4122 24.1923 43.4729 24.2831 43.5494 24.3596C43.626 24.4361 43.7168 24.4968 43.8168 24.5382C43.9167 24.5796 44.0239 24.601 44.1321 24.601H47.7111C47.9297 24.601 48.1392 24.5141 48.2938 24.3596C48.4483 24.2051 48.5351 23.9955 48.5351 23.777C48.5351 23.5584 48.4483 23.3488 48.2938 23.1943C48.1392 23.0398 47.9297 22.953 47.7111 22.953H44.9591V20.353H47.4501C47.6686 20.353 47.8782 20.2661 48.0328 20.1116C48.1873 19.9571 48.2741 19.7475 48.2741 19.529C48.2741 19.3104 48.1873 19.1008 48.0328 18.9463C47.8782 18.7918 47.6686 18.705 47.4501 18.705H44.9591V16.105L47.7111 16.108Z" fill="#28B0A6"/>
<path id="Path_122740" d="M33.103 16.03C33.7926 16.0288 34.4667 16.2347 35.038 16.621C35.1275 16.6855 35.229 16.7314 35.3366 16.756C35.4442 16.7806 35.5556 16.7833 35.6643 16.764C35.7729 16.7447 35.8766 16.7038 35.9691 16.6436C36.0616 16.5835 36.1411 16.5054 36.2029 16.4139C36.2647 16.3225 36.3075 16.2196 36.3287 16.1113C36.3499 16.003 36.3492 15.8915 36.3265 15.7835C36.3039 15.6755 36.2598 15.5732 36.1968 15.4825C36.1338 15.3919 36.0533 15.3149 35.96 15.256C35.2977 14.8091 34.5398 14.5238 33.7473 14.4229C32.9547 14.322 32.1496 14.4083 31.3964 14.675C30.6433 14.9416 29.9632 15.3812 29.4107 15.9583C28.8582 16.5354 28.4487 17.2341 28.2152 17.9981C27.9816 18.7622 27.9305 19.5703 28.0658 20.3577C28.2012 21.1451 28.5193 21.8898 28.9946 22.532C29.4699 23.1742 30.0892 23.696 30.8027 24.0555C31.5162 24.4149 32.304 24.6021 33.103 24.6019C35.766 24.6019 37.627 22.5019 37.627 19.4919C37.627 19.3837 37.6057 19.2766 37.5643 19.1766C37.5229 19.0767 37.4622 18.9858 37.3856 18.9093C37.3091 18.8328 37.2183 18.7721 37.1183 18.7307C37.0183 18.6893 36.9112 18.668 36.803 18.668H34.239C34.0204 18.668 33.8109 18.7548 33.6563 18.9093C33.5018 19.0638 33.415 19.2734 33.415 19.4919C33.415 19.7105 33.5018 19.9201 33.6563 20.0746C33.8109 20.2291 34.0204 20.316 34.239 20.316H35.912C35.8686 21.0308 35.5537 21.7021 35.0318 22.1925C34.5098 22.6829 33.8202 22.9553 33.104 22.954C32.1858 22.954 31.3052 22.5892 30.656 21.94C30.0067 21.2907 29.642 20.4101 29.642 19.4919C29.642 18.5738 30.0067 17.6932 30.656 17.044C31.3052 16.3947 32.1858 16.03 33.104 16.03H33.103Z" fill="#28B0A6"/>
<path id="Path_122741" d="M11.9839 14.384C11.7654 14.384 11.5558 14.4708 11.4013 14.6254C11.2468 14.7799 11.1599 14.9895 11.1599 15.208V21.108C11.1578 21.7045 11.317 22.2904 11.6206 22.8037C11.9243 23.3171 12.3612 23.7387 12.8849 24.024C13.4885 24.4094 14.1909 24.6115 14.9069 24.606H14.9129C15.5311 24.611 16.1417 24.4698 16.6949 24.194C17.3071 23.9416 17.8305 23.513 18.1989 22.9627C18.5672 22.4125 18.7639 21.7652 18.7639 21.103V15.211C18.7639 14.9925 18.6771 14.7829 18.5226 14.6284C18.3681 14.4738 18.1585 14.387 17.9399 14.387C17.7214 14.387 17.5118 14.4738 17.3573 14.6284C17.2028 14.7829 17.1159 14.9925 17.1159 15.211V21.103C17.1145 21.4603 17.0018 21.8082 16.7936 22.0986C16.5854 22.3889 16.2919 22.6071 15.9539 22.723C15.6303 22.8825 15.2737 22.9634 14.9129 22.959C14.5106 22.9654 14.1152 22.8534 13.7759 22.637C13.488 22.4988 13.2449 22.2822 13.0744 22.0121C12.9039 21.742 12.813 21.4294 12.8119 21.11V15.21C12.8119 14.9915 12.7251 14.7819 12.5706 14.6274C12.4161 14.4728 12.2065 14.386 11.9879 14.386L11.9839 14.384Z" fill="#28B0A6"/>
</g>
</svg>
